<mxfile host="Electron" agent="Mozilla/5.0 (Macintosh; Intel Mac OS X 10_15_7) AppleWebKit/537.36 (KHTML, like Gecko) draw.io/28.0.4 Chrome/138.0.7204.97 Electron/37.2.1 Safari/537.36" version="28.0.4" pages="1">
  <diagram id="ded2c921f0c04d42" name="Selection Criteria Flowchart Td">
    <mxGraphModel dx="706" dy="604" grid="1" gridSize="10" guides="1" tooltips="1" connect="1" arrows="1" fold="1" page="1" pageScale="1" pageWidth="827" pageHeight="1169" math="0" shadow="0">
      <root>
        <mxCell id="0" />
        <mxCell id="1" parent="0" />
        <UserObject label="" mermaidData="{&quot;data&quot;:&quot;flowchart TD\n    A[\&quot;Start Here: What&#x27;s your primary business driver?\&quot;] --&gt; B[\&quot;Cost Minimization\&quot;]\n    A --&gt; C[\&quot;Growth/Scalability\&quot;]\n    A --&gt; D[\&quot;Competitive Advantage\&quot;]\n    A --&gt; E[\&quot;Risk Mitigation\&quot;]\n    A --&gt; F[\&quot;Innovation/Differentiation\&quot;]\n    \n    %% Cost Minimization Path\n    B --&gt; B0{\&quot;Preference for managed services?\&quot;}\n    B0 --&gt;|Yes| B1[\&quot;AWS SQS/SNS\&quot;]\n    B0 --&gt;|No| B3[\&quot;RabbitMQ\&quot;]\n    B1 --&gt; B2[\&quot;Minimal upfront investment\&quot;]\n    B3 --&gt; B4[\&quot;Open source cost control\&quot;]\n    \n    %% Growth/Scalability Path\n    C --&gt; C0{\&quot;Current team expertise?\&quot;}\n    C0 --&gt;|Limited| C1[\&quot;Confluent Cloud\&quot;]\n    C0 --&gt;|Moderate| C3[\&quot;RabbitMQ\&quot;]\n    C1 --&gt; C2[\&quot;Scales with business\&quot;]\n    C3 --&gt; C4[\&quot;Balanced growth &amp; simplicity\&quot;]\n    \n    %% Competitive Advantage Path\n    D --&gt; D1[\&quot;Apache Kafka\&quot;]\n    D1 --&gt; D2[\&quot;Performance &amp; flexibility\&quot;]\n    \n    %% Risk Mitigation Path\n    E --&gt; E0{\&quot;Enterprise support required?\&quot;}\n    E0 --&gt;|Yes| E1[\&quot;Solace/IBM MQ\&quot;]\n    E0 --&gt;|No| E3[\&quot;RabbitMQ\&quot;]\n    E1 --&gt; E2[\&quot;Enterprise reliability\&quot;]\n    E3 --&gt; E4[\&quot;Reliable without enterprise overhead\&quot;]\n    \n    %% Innovation/Differentiation Path\n    F --&gt; F1[\&quot;Apache Pulsar\&quot;]\n    F1 --&gt; F2[\&quot;Cutting-edge features\&quot;]\n    \n    classDef driver fill:#e1f5fe,stroke:#01579b,stroke-width:2px\n    classDef decision fill:#fff3e0,stroke:#e65100,stroke-width:2px\n    classDef solution fill:#f3e5f5,stroke:#4a148c,stroke-width:2px\n    classDef benefit fill:#e8f5e8,stroke:#1b5e20,stroke-width:2px\n    \n    class A driver\n    class B,C,D,E,F driver\n    class B0,C0,E0 decision\n    class B1,B3,C1,C3,D1,E1,E3,F1 solution\n    class B2,B4,C2,C4,D2,E2,E4,F2 benefit&quot;}" id="5252eb54cc38467d">
          <mxCell style="shape=image;noLabel=1;verticalAlign=top;imageAspect=1;image=data:image/svg+xml,PHN2ZyB3aWR0aD0iMjAwIiBoZWlnaHQ9IjIwMCIgeG1sbnM9Imh0dHA6Ly93d3cudzMub3JnLzIwMDAvc3ZnIj48cmVjdCB3aWR0aD0iMjAwIiBoZWlnaHQ9IjIwMCIgZmlsbD0iI2Y5ZjlmOSIgc3Ryb2tlPSIjY2NjIi8+PHRleHQgeD0iMTAwIiB5PSIxMDAiIHRleHQtYW5jaG9yPSJtaWRkbGUiIGZvbnQtZmFtaWx5PSJBcmlhbCIgZm9udC1zaXplPSIxNCIgZmlsbD0iIzMzMyI+TWVybWFpZCBEaWFncmFtPC90ZXh0Pjwvc3ZnPg==;" vertex="1" parent="1">
            <mxGeometry x="260" y="130" width="200" height="200" as="geometry" />
          </mxCell>
        </UserObject>
      </root>
    </mxGraphModel>
  </diagram>
</mxfile>